<svg version="1.1" id="Layer_1" xmlns="http://www.w3.org/2000/svg" xmlns:xlink="http://www.w3.org/1999/xlink" x="0px" y="0px"
	 width="100%" viewBox="0 0 567 118" enable-background="new 0 0 567 118" xml:space="preserve">
<path fill="#F3F5F5" opacity="1.000000" stroke="none" 
	d="
M156.000000,1.000001 
	C293.285400,1.000000 430.570801,1.000000 567.928101,1.000000 
	C567.928101,40.271557 567.928101,79.543282 567.928101,118.907501 
	C379.000031,118.907501 190.000015,118.907501 1.037868,118.907501 
	C1.037868,79.588707 1.037868,40.294331 1.037868,1.000000 
	C13.738051,1.000000 26.400368,1.000000 39.523045,1.416615 
	C39.994331,3.221596 40.005257,4.609961 39.749725,6.096613 
	C38.983006,6.438759 38.482746,6.682617 37.521202,6.877522 
	C34.934196,6.829307 32.808437,6.821846 30.682764,6.832226 
	C22.348778,6.872923 20.618662,8.751100 21.209709,17.501667 
	C21.082666,38.315628 21.014339,58.667278 20.684021,79.285805 
	C20.596855,81.695366 20.771679,83.838051 20.996880,86.319122 
	C21.012201,87.111046 20.977150,87.564575 20.712582,88.193024 
	C20.322584,88.911560 20.162106,89.455170 19.869457,90.307137 
	C20.630779,94.643639 17.228456,95.833145 14.693748,98.049744 
	C13.782335,105.711441 16.909933,109.338562 25.518543,110.743805 
	C42.330055,110.736702 58.681934,110.659561 75.400864,110.722214 
	C85.532074,110.811516 95.296242,110.761009 105.521820,110.763885 
	C118.988953,110.886772 131.994675,110.956284 145.081650,111.386597 
	C147.342148,113.415817 149.426941,114.316177 151.312042,110.962120 
	C152.048737,110.814392 152.470352,110.734573 153.228302,110.728455 
	C154.022781,110.792984 154.480911,110.783806 154.979202,111.078705 
	C159.297470,111.666336 165.377777,106.774841 165.839951,102.899544 
	C166.043243,101.194817 166.792679,99.555222 167.404816,97.517754 
	C167.330933,97.497520 166.451202,97.136856 165.541138,97.026703 
	C159.256882,96.266083 157.407028,94.214073 158.061523,87.943298 
	C158.346329,85.214668 159.333984,82.559395 160.282196,79.752281 
	C160.965652,79.622208 161.369324,79.610664 161.951782,79.885498 
	C162.834198,80.308609 163.537811,80.445343 164.241425,80.582077 
	C164.160797,79.721725 164.080170,78.861374 163.999756,77.586929 
	C164.214142,75.378906 164.613083,73.584885 164.612274,71.791054 
	C164.607224,60.571980 164.554230,49.352196 164.352402,38.135616 
	C164.339371,37.411224 162.951019,36.711586 162.129807,35.669701 
	C162.101074,34.891857 162.144974,34.444752 162.565857,33.881145 
	C163.295410,32.231560 163.899292,30.707069 163.952103,29.163729 
	C164.094147,25.011040 163.841980,20.840757 164.090744,16.698151 
	C164.173340,15.322633 165.302856,14.009988 165.787888,13.010419 
	C165.419571,11.398055 165.225571,9.770347 164.661026,8.283309 
	C164.021332,6.598335 163.615921,3.873046 160.493958,6.177458 
	C158.796280,4.324717 157.398148,2.662359 156.000000,1.000001 
M383.139557,80.996170 
	C383.139557,80.996170 383.186523,81.162498 382.801056,81.154274 
	C382.698120,81.227196 382.497223,81.327530 382.508667,81.368477 
	C382.570007,81.587601 382.684265,81.791931 382.859467,82.683548 
	C382.914337,83.138039 382.969177,83.592522 383.064362,84.769478 
	C384.045044,85.544640 384.958313,86.875938 386.017365,87.004280 
	C392.655090,87.808624 399.329742,88.803833 405.982513,88.739288 
	C408.570709,88.714195 411.133820,86.098900 414.018951,84.767113 
	C414.018951,84.767113 413.712860,84.642906 414.435120,84.809921 
	C415.229248,83.811440 416.023376,82.812958 416.965240,81.901604 
	C416.965240,81.901604 416.798676,81.860847 417.479797,81.641350 
	C417.884857,80.615929 418.289917,79.590515 418.799805,78.039680 
	C418.953461,77.718307 419.107086,77.396935 419.961182,76.823265 
	C420.254608,76.435364 420.791473,76.056389 420.806061,75.658257 
	C421.212280,64.590538 421.605652,53.521755 421.844482,42.449753 
	C421.861908,41.641632 420.695526,40.807980 420.012360,40.000282 
	C420.012360,40.000282 420.009003,39.931751 419.831940,39.177147 
	C416.453583,37.695866 413.103119,36.710030 409.395844,40.140297 
	C408.345001,40.572906 406.822418,41.687851 406.313782,41.336208 
	C398.154968,35.695618 384.368896,40.633842 381.200592,50.466557 
	C378.414246,59.113941 381.736908,66.715576 391.631165,73.521072 
	C395.089691,73.616943 398.643768,74.244789 401.977600,73.646248 
	C404.823364,73.135345 405.037018,74.468361 405.365326,76.369263 
	C405.365326,76.369263 405.299042,76.429184 404.530396,76.234123 
	C400.525970,76.629219 396.521515,77.024315 392.191467,77.454521 
	C392.191467,77.454521 391.907227,77.291786 391.755798,76.681290 
	C390.839020,76.456749 389.922272,76.232216 388.251495,75.889221 
	C387.496979,75.907326 386.742493,75.925430 385.538666,75.506813 
	C385.019348,76.979668 384.500031,78.452530 384.008636,79.985168 
	C384.008636,79.985168 383.945984,80.005852 383.503143,80.248299 
	C383.388336,80.554550 383.273529,80.860809 383.139557,80.996170 
M362.023499,25.025375 
	C362.023499,25.025375 362.124939,25.090401 361.401184,25.126930 
	C358.780273,27.298719 357.548889,29.530315 361.520233,32.325050 
	C362.070679,33.052097 362.621124,33.779144 363.319153,35.298656 
	C365.465851,36.108139 367.612549,36.917625 368.943787,37.419609 
	C367.360321,38.047623 365.161041,38.919888 362.871948,39.971252 
	C362.871948,39.971252 362.672363,39.988438 362.316010,40.234924 
	C362.104797,40.461651 362.011292,40.729549 362.001556,40.998775 
	C362.001556,40.998775 362.041626,41.034233 361.304749,41.139599 
	C360.942627,41.630177 360.255280,42.128613 360.266876,42.610153 
	C360.458038,50.522018 360.677704,58.434425 361.031067,66.340446 
	C361.145203,68.894699 361.662323,71.430946 362.582764,74.569794 
	C365.665741,74.719658 368.768402,75.119331 371.820679,74.879112 
	C372.840424,74.798859 373.731476,73.082893 375.145050,71.638382 
	C377.083252,70.161346 377.133759,68.930298 374.661957,67.086693 
	C374.641968,58.388161 374.621979,49.689625 375.265167,40.932461 
	C375.656891,40.547745 376.048615,40.163025 376.440308,39.778297 
	C375.640045,39.532612 374.839752,39.286926 373.485443,38.541096 
	C373.309631,37.309525 373.133820,36.077957 373.272247,34.515705 
	C373.504913,34.317551 373.757446,34.149143 374.823181,33.985165 
	C377.951691,31.414204 377.921631,28.115309 374.370911,24.957090 
	C374.130341,24.821491 373.958221,24.625698 373.633850,23.729944 
	C373.225922,23.581736 372.817963,23.433527 372.197205,23.373692 
	C372.197205,23.373692 372.020721,23.225464 371.563660,22.576965 
	C369.372925,22.769972 367.182159,22.962980 364.764221,23.313456 
	C364.764221,23.313456 364.492340,23.263609 363.750671,23.152538 
	C363.197784,23.809866 362.644867,24.467194 362.023499,25.025375 
M465.650726,74.893753 
	C465.764008,73.609848 465.877258,72.325935 466.005554,70.337067 
	C466.031586,69.867706 466.057617,69.398338 466.681549,68.699295 
	C467.654480,69.167580 468.694336,69.535454 469.584259,70.128326 
	C470.829407,70.957909 471.962830,71.955223 473.018982,72.975182 
	C473.018982,72.975182 473.117950,72.853699 473.121490,73.617485 
	C476.898041,77.950958 485.279236,78.482079 490.404388,74.122368 
	C495.303406,74.070312 500.202393,74.018257 505.645386,73.350418 
	C505.750458,66.074379 506.087494,58.791927 505.886505,51.524357 
	C505.728149,45.797047 501.677856,41.250782 496.775879,40.176487 
	C496.775879,40.176487 496.794037,40.322983 496.539734,39.575123 
	C491.005829,39.129642 485.457947,38.258919 479.944580,38.439579 
	C477.608032,38.516140 475.343811,40.800442 472.763672,42.490280 
	C472.539093,42.747181 472.263702,42.925732 471.296875,43.098549 
	C470.509918,46.657009 471.153625,49.550179 475.018433,50.968876 
	C475.018433,50.968876 475.030212,51.027481 475.003967,51.777233 
	C474.353363,53.538910 473.702789,55.300591 473.006256,56.996830 
	C473.006256,56.996830 473.062378,57.055611 472.342743,57.074261 
	C470.913971,58.962864 469.572906,60.927887 468.020844,62.709042 
	C467.197144,63.654358 466.007294,64.280579 464.988220,65.005051 
	C464.988220,65.005051 464.950653,65.032791 464.378754,64.436028 
	C458.738647,64.296722 453.089355,64.292679 447.465759,63.910297 
	C446.260956,63.828377 445.149353,62.375908 443.994843,61.554806 
	C445.074371,60.378063 446.065796,58.312428 447.250305,58.195019 
	C450.507965,57.872120 453.850250,58.527958 457.151428,58.454754 
	C458.418335,58.426666 459.664703,57.472904 460.968018,56.988739 
	C460.968018,56.988739 460.965393,56.921551 461.689850,56.919308 
	C462.548798,53.921097 463.407745,50.922882 464.337616,47.677044 
	C461.871704,47.019547 460.149994,46.269985 458.385956,46.151714 
	C454.912048,45.918816 451.382629,46.298855 447.942719,45.879635 
	C446.565674,45.711815 445.364258,44.102921 444.082916,43.150002 
	C445.314667,42.427547 446.509521,41.170010 447.785034,41.082050 
	C451.753296,40.808395 455.762085,40.801456 459.736420,41.024643 
	C463.872437,41.256908 466.336395,40.519901 466.076965,35.424503 
	C465.730133,28.612873 465.659027,28.123430 459.822388,28.022194 
	C450.206696,27.855410 440.590912,27.649107 430.975037,27.644943 
	C430.336517,27.644667 429.697327,29.209612 429.017456,30.549612 
	C428.965607,30.709661 428.913727,30.869713 428.336792,31.659836 
	C428.237579,45.179798 428.128265,58.699715 428.073578,72.219856 
	C428.071228,72.801506 428.572601,73.385185 429.023254,74.366730 
	C429.023254,74.366730 429.132385,74.792145 429.177612,75.560547 
	C429.796997,75.997505 430.424835,76.826118 431.034515,76.812973 
	C440.958954,76.598839 450.882446,76.313210 460.802307,75.941460 
	C462.197266,75.889183 463.572083,75.297897 465.000000,74.998131 
	C465.000000,74.998131 464.965576,74.947212 465.650726,74.893753 
M548.976074,74.061256 
	C548.976074,74.061256 549.197693,73.934082 549.517395,74.699448 
	C553.400085,74.466400 557.282715,74.233345 561.655701,73.446381 
	C561.524353,71.291786 561.393005,69.137192 561.173706,66.243927 
	C561.202454,65.501984 561.231140,64.760040 561.735657,63.353447 
	C561.577332,58.896164 561.419006,54.438881 561.171387,49.190872 
	C561.200073,48.131680 561.228760,47.072483 561.725403,45.383728 
	C562.277344,38.932892 562.277405,38.924019 556.101929,38.898552 
	C554.294128,38.891094 552.456360,38.772469 550.693237,39.068062 
	C550.017029,39.181435 549.510986,40.309288 548.880676,41.914455 
	C548.834045,52.262012 548.787354,62.609573 548.429810,73.162689 
	C548.386292,73.278824 548.274719,73.428474 548.312317,73.504646 
	C548.415100,73.713158 548.580505,73.890755 548.976074,74.061256 
M543.669617,68.696518 
	C543.539429,68.123024 543.409302,67.549530 542.731689,66.265709 
	C537.897217,65.971703 533.062744,65.677696 527.181824,65.320053 
	C528.924011,63.139851 529.887390,61.843613 530.944153,60.628506 
	C534.438049,56.610893 538.070801,52.708912 541.447388,48.595989 
	C544.205078,45.236973 543.296448,39.931538 540.055420,39.870537 
	C530.635498,39.693226 521.210144,39.807667 511.453583,39.807667 
	C511.453583,43.100578 511.453583,45.813595 511.453583,49.057594 
	C516.295044,49.057594 520.857239,49.057594 526.898438,49.057594 
	C521.943848,54.785728 518.052368,59.653854 513.752869,64.130104 
	C510.715790,67.292068 510.262939,70.625153 511.344818,74.870079 
	C521.936890,74.870079 532.380188,74.870079 543.408386,74.914215 
	C543.772766,74.656563 544.137207,74.398903 544.501587,74.141258 
	C544.109253,73.724846 543.716980,73.308434 543.189880,72.127846 
	C543.228027,71.096069 543.266235,70.064301 543.669617,68.696518 
M253.705505,38.981022 
	C250.277374,38.668644 246.786743,37.790565 243.434036,38.160934 
	C236.321030,38.946709 230.993515,42.945782 228.439560,49.610901 
	C225.658401,56.868904 226.602112,64.103027 231.738373,70.082077 
	C238.385925,77.820389 247.618851,78.247894 256.528931,76.387444 
	C265.908112,74.429047 266.723816,70.713600 260.858337,63.080875 
	C260.741150,62.928356 260.967407,62.511883 261.046936,62.221596 
	C269.754181,61.618435 270.857758,59.754982 266.266632,52.313530 
	C266.195404,51.873390 266.124176,51.433247 266.507721,50.627716 
	C265.942383,49.762394 265.377045,48.897076 264.632294,47.843674 
	C264.632294,47.843674 264.645813,47.584084 264.837036,46.775539 
	C264.266754,41.296345 259.629333,40.753937 255.342819,39.441753 
	C255.065460,39.580738 254.781235,39.596573 253.705505,38.981022 
M215.143448,70.753380 
	C222.955475,65.581192 225.566406,58.034885 224.515335,49.136108 
	C223.406174,39.745502 218.122467,32.888977 208.924683,31.221573 
	C198.937698,29.411104 188.613434,29.461315 178.346481,28.693464 
	C178.346481,45.003765 178.346481,59.868538 178.346481,75.034386 
	C183.927612,75.034386 189.076035,74.935783 194.219193,75.058350 
	C201.286011,75.226753 208.192169,74.751076 215.143448,70.753380 
M298.904907,39.841415 
	C297.652618,41.420204 296.057037,42.835815 295.214142,44.609188 
	C292.932465,49.409687 290.970490,54.362141 288.793701,59.460529 
	C287.649078,58.615658 287.261658,58.482670 287.166779,58.236809 
	C285.670044,54.357307 284.211792,50.462959 282.742950,46.572678 
	C280.047546,39.433857 275.404602,37.630444 267.569275,40.885571 
	C272.249023,52.211132 276.928925,63.537117 281.550964,74.723038 
	C293.996460,75.813744 293.998108,75.814453 298.606049,65.150368 
	C299.397980,63.317589 300.189331,61.484104 300.946381,59.636765 
	C303.567474,53.240635 306.173248,46.838226 309.039764,39.813610 
	C305.299408,39.813610 302.513977,39.813610 298.904907,39.841415 
M346.426971,74.250374 
	C358.348175,69.246536 359.280914,62.974274 349.733612,50.778046 
	C350.203735,50.198322 350.722534,49.584743 351.213226,48.949467 
	C356.224915,42.460876 354.384979,34.449314 346.879395,31.285845 
	C344.189240,30.151981 341.117737,29.547016 338.190308,29.426008 
	C330.887573,29.124153 323.565643,29.322430 316.255707,29.143892 
	C313.389343,29.073885 312.449005,30.261593 312.493317,32.978725 
	C312.585419,38.628384 312.488342,44.280991 312.483398,49.932396 
	C312.476135,58.186840 312.481537,66.441292 312.481537,74.443680 
	C324.084351,74.443680 334.845520,74.443680 346.426971,74.250374 
M562.095398,27.759489 
	C560.207642,23.384003 555.704590,21.613745 551.204712,23.478157 
	C547.827698,24.877333 546.620911,28.858421 548.157166,32.729355 
	C549.964172,37.282532 554.049866,35.978283 557.074768,35.763729 
	C560.835632,35.496975 562.346497,32.344292 562.095398,27.759489 
z"/>
<path fill="#30405D" opacity="1.000000" stroke="none" 
	d="
M40.016186,5.998325 
	C40.005257,4.609961 39.994331,3.221596 39.991703,1.416615 
	C78.354225,1.000000 116.708458,1.000000 155.531342,1.000001 
	C157.398148,2.662359 158.796280,4.324717 160.537231,6.577045 
	C161.254791,9.728676 161.872650,12.282425 161.956314,14.853555 
	C162.163834,21.230688 162.127350,27.615759 162.188873,33.997643 
	C162.144974,34.444752 162.101074,34.891857 162.054810,36.133099 
	C162.096039,50.290249 162.139618,63.653263 162.118164,77.337212 
	C161.959747,78.305138 161.866379,78.952126 161.772995,79.599121 
	C161.369324,79.610664 160.965652,79.622208 159.895340,79.641525 
	C158.157791,79.604240 157.086884,79.559189 156.037445,79.080231 
	C155.994888,56.186798 155.930893,33.727268 155.868286,10.884745 
	C153.983963,9.680352 152.098251,8.858953 149.927658,7.693770 
	C131.103043,7.249910 112.563286,7.149831 93.567253,6.986747 
	C89.737854,6.956994 86.364746,6.990246 82.526505,6.965947 
	C68.362274,6.977736 54.663166,7.047077 40.866318,6.884601 
	C40.517780,6.434631 40.266983,6.216478 40.016186,5.998325 
z"/>
<path fill="#17C3A8" opacity="1.000000" stroke="none" 
	d="
M214.823914,70.935829 
	C208.192169,74.751076 201.286011,75.226753 194.219193,75.058350 
	C189.076035,74.935783 183.927612,75.034386 178.346481,75.034386 
	C178.346481,59.868538 178.346481,45.003765 178.346481,28.693464 
	C188.613434,29.461315 198.937698,29.411104 208.924683,31.221573 
	C218.122467,32.888977 223.406174,39.745502 224.515335,49.136108 
	C225.566406,58.034885 222.955475,65.581192 214.823914,70.935829 
M190.843018,61.270184 
	C190.645401,63.605595 191.210052,65.151970 194.064453,64.865868 
	C196.527206,64.619034 199.069580,64.906952 201.480331,64.449898 
	C208.554688,63.108662 212.404236,57.589649 211.594208,50.349274 
	C210.897003,44.117352 206.012115,40.010429 199.143509,39.918179 
	C197.821442,39.900425 196.438110,40.273880 195.185883,39.998779 
	C191.254654,39.135136 190.709839,41.201633 190.797745,44.397953 
	C190.943634,49.701332 190.843048,55.011490 190.843018,61.270184 
z"/>
<path fill="#18C4A8" opacity="1.000000" stroke="none" 
	d="
M385.987976,75.943527 
	C386.742493,75.925430 387.496979,75.907326 388.822083,76.218956 
	C390.230835,76.796394 391.069031,77.044090 391.907227,77.291786 
	C391.907227,77.291786 392.191467,77.454521 392.648834,77.696579 
	C397.376404,79.098961 401.639557,80.202148 405.299042,76.429184 
	C405.299042,76.429184 405.365326,76.369263 405.716949,76.212814 
	C406.809601,74.295914 407.550629,72.535469 408.047424,71.355225 
	C401.941162,71.933830 396.488434,72.450508 391.035706,72.967194 
	C381.736908,66.715576 378.414246,59.113941 381.200592,50.466557 
	C384.368896,40.633842 398.154968,35.695618 406.313782,41.336208 
	C406.822418,41.687851 408.345001,40.572906 410.131317,40.039734 
	C413.914185,39.936699 416.961609,39.934227 420.009003,39.931751 
	C420.009003,39.931751 420.012360,40.000282 420.053436,40.462292 
	C419.816589,52.974720 419.538666,65.025139 419.260742,77.075562 
	C419.107086,77.396935 418.953461,77.718307 418.464172,78.472778 
	C417.685272,79.890869 417.241974,80.875862 416.798676,81.860847 
	C416.798676,81.860847 416.965240,81.901604 416.586823,81.934357 
	C415.376556,82.859047 414.544708,83.750984 413.712860,84.642914 
	C413.712860,84.642906 414.018951,84.767113 413.497070,84.768570 
	C402.867188,89.676208 392.899567,88.769867 383.024048,84.047012 
	C382.969177,83.592522 382.914337,83.138039 382.981903,82.162003 
	C383.104340,81.640457 383.186523,81.162498 383.186523,81.162498 
	C383.186523,81.162498 383.139557,80.996170 383.389526,80.978622 
	C383.741638,80.642662 383.843811,80.324265 383.945984,80.005859 
	C383.945984,80.005852 384.008636,79.985168 384.257263,79.768127 
	C384.999939,78.348564 385.493958,77.146049 385.987976,75.943527 
M407.926941,57.219734 
	C407.646027,51.452194 404.408478,48.429970 399.273682,49.141960 
	C395.041565,49.728786 391.765656,53.693039 393.313232,57.554337 
	C394.223785,59.826206 396.985809,62.164368 399.379120,62.847820 
	C403.152863,63.925484 406.553467,62.358757 407.926941,57.219734 
z"/>
<path fill="#15C3A8" opacity="1.000000" stroke="none" 
	d="
M428.861877,31.029766 
	C428.913727,30.869713 428.965607,30.709661 429.494934,30.210548 
	C440.098816,29.839956 450.227509,29.920561 460.350464,29.716385 
	C463.917450,29.644444 464.408447,31.361454 464.364960,34.301914 
	C464.321716,37.226734 464.278931,39.550900 460.273743,39.285122 
	C456.306061,39.021832 452.308105,39.199085 448.323486,39.209377 
	C441.472107,39.227070 441.472137,39.235634 442.017090,47.319374 
	C446.857178,47.319374 451.771912,47.451252 456.676025,47.279358 
	C460.911133,47.130917 462.363922,49.122437 461.763184,53.045967 
	C461.563873,54.348030 461.235046,55.630257 460.965393,56.921551 
	C460.965393,56.921551 460.968018,56.988739 460.486450,56.905426 
	C454.088104,56.822117 448.171326,56.822117 442.182922,56.822117 
	C442.182922,59.951385 442.182922,62.310535 442.182922,65.032791 
	C450.053040,65.032791 457.501862,65.032791 464.950653,65.032791 
	C464.950653,65.032791 464.988220,65.005051 465.051910,65.373909 
	C465.438263,66.804840 465.760956,67.866913 466.083649,68.928978 
	C466.057617,69.398338 466.031586,69.867706 465.749298,70.925674 
	C465.317230,72.658600 465.141418,73.802910 464.965576,74.947212 
	C464.965576,74.947212 465.000000,74.998131 464.514160,74.955978 
	C452.396332,74.873268 440.764374,74.832710 429.132385,74.792145 
	C429.132385,74.792145 429.023254,74.366730 429.018677,73.709137 
	C428.963318,59.044289 428.912598,45.037029 428.861877,31.029766 
z"/>
<path fill="#1AC3A8" opacity="1.000000" stroke="none" 
	d="
M505.101410,73.966202 
	C500.202393,74.018257 495.303406,74.070312 489.666138,74.424988 
	C483.657898,74.102966 478.387939,73.478333 473.117950,72.853699 
	C473.117950,72.853699 473.018982,72.975182 473.005035,72.576736 
	C468.685822,67.116989 469.589111,62.080242 473.062378,57.055611 
	C473.062378,57.055611 473.006256,56.996830 473.407745,56.976089 
	C479.733887,55.686962 485.658539,54.418575 493.115387,52.822170 
	C490.726379,51.244869 488.929169,49.066219 487.171936,49.098022 
	C483.114380,49.171455 479.076233,50.316883 475.030212,51.027481 
	C475.030212,51.027481 475.018433,50.968876 474.939026,50.621574 
	C473.885590,47.858162 472.911560,45.442047 471.937500,43.025928 
	C472.263702,42.925732 472.539093,42.747181 473.293518,42.246971 
	C481.285645,38.783924 489.013275,39.190231 496.794037,40.322983 
	C496.794037,40.322983 496.775879,40.176487 496.865479,40.547577 
	C502.756409,44.757812 504.976868,50.252773 504.824371,57.076214 
	C504.698639,62.701336 504.993134,68.335854 505.101410,73.966202 
M489.425720,67.131920 
	C490.663666,65.504295 491.901611,63.876671 493.139557,62.249050 
	C492.847900,61.837765 492.556274,61.426483 492.264648,61.015202 
	C489.708496,61.015202 487.099548,60.717876 484.621613,61.158192 
	C483.598022,61.340073 482.203125,63.083241 482.168243,64.155060 
	C482.133148,65.234772 483.354218,66.841171 484.431305,67.341087 
	C485.621094,67.893288 487.272552,67.450714 489.425720,67.131920 
z"/>
<path fill="#1AC3A8" opacity="1.000000" stroke="none" 
	d="
M264.645813,47.584087 
	C264.645813,47.584084 264.632294,47.843674 264.734070,48.273941 
	C265.241516,49.467171 265.647217,50.230137 266.052917,50.993103 
	C266.124176,51.433247 266.195404,51.873390 266.308899,53.070099 
	C266.408356,60.247982 266.408386,60.256344 259.853668,60.268742 
	C253.786957,60.280220 247.720230,60.271187 241.301819,60.271187 
	C241.715729,61.522877 241.755692,62.048641 242.025146,62.396805 
	C245.242493,66.553970 248.870636,67.434380 255.474716,64.830704 
	C259.921844,63.077412 260.980591,66.673309 262.636963,68.939026 
	C262.949432,69.366455 260.741241,72.808624 259.315460,73.120804 
	C254.542221,74.165924 249.560364,75.095207 244.724564,74.835686 
	C235.870514,74.360519 229.192490,66.703957 228.954620,57.827255 
	C228.712845,48.805283 234.784821,41.268921 243.699234,39.963474 
	C247.243347,39.444466 250.890106,39.626427 254.490143,39.489258 
	C254.781235,39.596573 255.065460,39.580738 255.608414,39.691563 
	C258.797943,42.488945 261.721863,45.036518 264.645813,47.584087 
M245.794281,54.033318 
	C248.699615,54.033318 251.604950,54.033318 254.697128,54.033318 
	C254.327255,49.379974 251.496002,48.199295 248.216019,48.084660 
	C244.605209,47.958458 241.994186,49.570869 241.292282,53.754082 
	C242.684616,53.858025 243.804123,53.941601 245.794281,54.033318 
z"/>
<path fill="#17C3A7" opacity="1.000000" stroke="none" 
	d="
M542.823547,74.870087 
	C532.380188,74.870079 521.936890,74.870079 511.344818,74.870079 
	C510.262939,70.625153 510.715790,67.292068 513.752869,64.130104 
	C518.052368,59.653854 521.943848,54.785728 526.898438,49.057594 
	C520.857239,49.057594 516.295044,49.057594 511.453583,49.057594 
	C511.453583,45.813595 511.453583,43.100578 511.453583,39.807667 
	C521.210144,39.807667 530.635498,39.693226 540.055420,39.870537 
	C543.296448,39.931538 544.205078,45.236973 541.447388,48.595989 
	C538.070801,52.708912 534.438049,56.610893 530.944153,60.628506 
	C529.887390,61.843613 528.924011,63.139851 527.181824,65.320053 
	C533.062744,65.677696 537.897217,65.971703 542.901428,66.959427 
	C543.148926,68.112930 543.226685,68.572731 543.304443,69.032532 
	C543.266235,70.064301 543.228027,71.096069 543.119690,72.824066 
	C542.974182,73.970215 542.898865,74.420151 542.823547,74.870087 
z"/>
<path fill="#F2F4F9" opacity="1.000000" stroke="none" 
	d="
M156.015976,79.514145 
	C157.086884,79.559189 158.157791,79.604240 159.615570,79.760040 
	C159.333984,82.559395 158.346329,85.214668 158.061523,87.943298 
	C157.407028,94.214073 159.256882,96.266083 165.541138,97.026703 
	C166.451202,97.136856 167.330933,97.497520 167.404816,97.517754 
	C166.792679,99.555222 166.043243,101.194817 165.839951,102.899544 
	C165.377777,106.774841 159.297470,111.666336 155.226959,110.866394 
	C157.600067,107.895050 159.765533,105.440094 162.108521,102.632362 
	C162.495972,100.970612 162.705902,99.661636 162.947815,98.153305 
	C143.805542,98.153305 125.416084,98.153305 106.560349,98.077850 
	C95.400970,98.047661 84.707870,98.092911 73.548447,98.079025 
	C53.719311,97.944641 34.356495,97.869400 14.993682,97.794159 
	C17.228456,95.833145 20.630779,94.643639 20.116131,90.307861 
	C20.494972,90.000221 20.988363,90.002174 21.217915,90.247917 
	C21.760248,91.114693 22.073029,91.735725 22.890566,93.358955 
	C22.890566,67.091087 22.890566,42.054947 22.949699,16.610992 
	C23.326153,9.626587 24.579737,8.352201 31.000584,8.164946 
	C33.326817,8.097104 35.655190,8.102578 38.188931,8.254571 
	C39.094215,8.657319 39.793156,8.880095 40.480961,9.435825 
	C40.500912,10.432125 40.532001,11.095469 40.140640,11.848276 
	C36.778458,12.025926 33.828918,11.996646 30.902229,12.240993 
	C28.721832,12.423034 26.510340,12.898932 27.066038,16.485664 
	C27.058983,38.620174 27.096811,60.289295 27.071098,82.377441 
	C27.669941,85.204620 28.332329,87.612778 29.028042,90.350174 
	C29.370609,91.723015 29.679850,92.766617 29.583138,93.851761 
	C27.663239,93.893318 26.149294,93.893318 24.635349,93.893318 
	C24.608273,94.402122 24.581194,94.910919 24.554115,95.419724 
	C26.923431,95.615837 29.292656,95.981384 31.662077,95.982674 
	C67.648750,96.002151 103.635452,95.972343 139.622147,95.957581 
	C155.689331,95.950996 155.689331,95.954552 156.106140,79.891190 
	C156.185059,79.763077 156.015976,79.514145 156.015976,79.514145 
M26.423981,91.484642 
	C26.423981,91.484642 26.521664,91.429268 26.423981,91.484642 
z"/>
<path fill="#19C3A8" opacity="1.000000" stroke="none" 
	d="
M299.316711,39.827515 
	C302.513977,39.813610 305.299408,39.813610 309.039764,39.813610 
	C306.173248,46.838226 303.567474,53.240635 300.946381,59.636765 
	C300.189331,61.484104 299.397980,63.317589 298.606049,65.150368 
	C293.998108,75.814453 293.996460,75.813744 281.550964,74.723038 
	C276.928925,63.537117 272.249023,52.211132 267.569275,40.885571 
	C275.404602,37.630444 280.047546,39.433857 282.742950,46.572678 
	C284.211792,50.462959 285.670044,54.357307 287.166779,58.236809 
	C287.261658,58.482670 287.649078,58.615658 288.793701,59.460529 
	C290.970490,54.362141 292.932465,49.409687 295.214142,44.609188 
	C296.057037,42.835815 297.652618,41.420204 299.316711,39.827515 
z"/>
<path fill="#18C3A7" opacity="1.000000" stroke="none" 
	d="
M374.601959,40.991093 
	C374.621979,49.689625 374.641968,58.388161 374.473755,67.800110 
	C374.417450,69.713905 374.549408,70.914284 374.681366,72.114655 
	C373.731476,73.082893 372.840424,74.798859 371.820679,74.879112 
	C368.768402,75.119331 365.665741,74.719658 362.390320,73.815704 
	C362.145813,62.385826 362.093719,51.710030 362.041626,41.034233 
	C362.041626,41.034233 362.001556,40.998775 362.201782,40.898758 
	C362.605225,40.566353 362.695343,40.296253 362.672363,39.988438 
	C362.672363,39.988438 362.871948,39.971252 363.372681,39.934406 
	C367.229218,39.978039 370.584961,40.058517 373.980957,40.331062 
	C374.115997,40.801811 374.309570,40.957798 374.601959,40.991093 
z"/>
<path fill="#11C3A7" opacity="1.000000" stroke="none" 
	d="
M561.259888,64.018097 
	C561.231140,64.760040 561.202454,65.501984 561.103516,67.040390 
	C561.077332,69.891335 561.121338,71.945816 561.165405,74.000290 
	C557.282715,74.233345 553.400085,74.466400 549.734314,74.214386 
	C550.300781,72.198372 550.938110,70.670189 550.952759,69.136040 
	C551.041870,59.818947 550.989197,50.500500 551.429382,41.111809 
	C555.755493,41.277466 561.135681,38.684063 561.257446,46.013290 
	C561.228760,47.072483 561.200073,48.131680 561.101685,50.040024 
	C561.107910,55.265480 561.183899,59.641788 561.259888,64.018097 
z"/>
<path fill="#CAF6F1" opacity="1.000000" stroke="none" 
	d="
M254.097824,39.235142 
	C250.890106,39.626427 247.243347,39.444466 243.699234,39.963474 
	C234.784821,41.268921 228.712845,48.805283 228.954620,57.827255 
	C229.192490,66.703957 235.870514,74.360519 244.724564,74.835686 
	C249.560364,75.095207 254.542221,74.165924 259.315460,73.120804 
	C260.741241,72.808624 262.949432,69.366455 262.636963,68.939026 
	C260.980591,66.673309 259.921844,63.077412 255.474716,64.830704 
	C248.870636,67.434380 245.242493,66.553970 242.025146,62.396805 
	C241.755692,62.048641 241.715729,61.522877 241.301819,60.271187 
	C247.720230,60.271187 253.786957,60.280220 259.853668,60.268742 
	C266.408386,60.256344 266.408356,60.247982 266.453583,53.372955 
	C270.857758,59.754982 269.754181,61.618435 261.040192,62.220078 
	C260.967407,62.511883 260.741150,62.928356 260.858337,63.080875 
	C266.723816,70.713600 265.908112,74.429047 256.528931,76.387444 
	C247.618851,78.247894 238.385925,77.820389 231.738373,70.082077 
	C226.602112,64.103027 225.658401,56.868904 228.439560,49.610901 
	C230.993515,42.945782 236.321030,38.946709 243.434036,38.160934 
	C246.786743,37.790565 250.277374,38.668644 254.097824,39.235142 
z"/>
<path fill="#42C1AB" opacity="1.000000" stroke="none" 
	d="
M346.016846,74.347031 
	C334.845520,74.443680 324.084351,74.443680 312.481537,74.443680 
	C312.481537,66.441292 312.476135,58.186840 312.483398,49.932396 
	C312.488342,44.280991 312.585419,38.628384 312.493317,32.978725 
	C312.449005,30.261593 313.389343,29.073885 316.255707,29.143892 
	C323.565643,29.322430 330.887573,29.124153 338.190308,29.426008 
	C341.117737,29.547016 344.189240,30.151981 346.879395,31.285845 
	C354.384979,34.449314 356.224915,42.460876 351.213226,48.949467 
	C350.722534,49.584743 350.203735,50.198322 349.733612,50.778046 
	C359.280914,62.974274 358.348175,69.246536 346.016846,74.347031 
M351.268494,45.531609 
	C353.948212,39.666492 352.283600,35.343609 346.189056,32.892319 
	C336.538391,29.010735 326.447845,31.594112 316.564148,31.251511 
	C315.740845,31.222971 314.093018,33.813469 314.069580,35.207981 
	C313.874298,46.835381 314.052765,58.468586 313.923859,70.097885 
	C313.889130,73.230560 315.118958,74.139374 318.054840,74.070938 
	C324.214142,73.927391 330.406189,74.375526 336.532135,73.900978 
	C340.545593,73.590065 344.803162,72.760490 348.360443,70.981567 
	C356.147858,67.087288 356.673798,60.538532 350.382233,54.487541 
	C349.125092,53.278461 348.367249,51.550228 347.432434,50.141621 
	C348.786987,48.620129 349.869904,47.403778 351.268494,45.531609 
z"/>
<path fill="#C7F7F2" opacity="1.000000" stroke="none" 
	d="
M461.327637,56.920429 
	C461.235046,55.630257 461.563873,54.348030 461.763184,53.045967 
	C462.363922,49.122437 460.911133,47.130917 456.676025,47.279358 
	C451.771912,47.451252 446.857178,47.319374 442.017090,47.319374 
	C441.472137,39.235634 441.472107,39.227070 448.323486,39.209377 
	C452.308105,39.199085 456.306061,39.021832 460.273743,39.285122 
	C464.278931,39.550900 464.321716,37.226734 464.364960,34.301914 
	C464.408447,31.361454 463.917450,29.644444 460.350464,29.716385 
	C450.227509,29.920561 440.098816,29.839956 429.515411,29.959009 
	C429.697327,29.209612 430.336517,27.644667 430.975037,27.644943 
	C440.590912,27.649107 450.206696,27.855410 459.822388,28.022194 
	C465.659027,28.123430 465.730133,28.612873 466.076965,35.424503 
	C466.336395,40.519901 463.872437,41.256908 459.736420,41.024643 
	C455.762085,40.801456 451.753296,40.808395 447.785034,41.082050 
	C446.509521,41.170010 445.314667,42.427547 444.082916,43.149990 
	C445.364258,44.102921 446.565674,45.711815 447.942719,45.879635 
	C451.382629,46.298855 454.912048,45.918816 458.385956,46.151714 
	C460.149994,46.269985 461.871704,47.019547 464.337616,47.677044 
	C463.407745,50.922882 462.548798,53.921097 461.327637,56.920429 
z"/>
<path fill="#21C3A8" opacity="1.000000" stroke="none" 
	d="
M562.115234,28.175663 
	C562.346497,32.344292 560.835632,35.496975 557.074768,35.763729 
	C554.049866,35.978283 549.964172,37.282532 548.157166,32.729355 
	C546.620911,28.858421 547.827698,24.877333 551.204712,23.478157 
	C555.704590,21.613745 560.207642,23.384003 562.115234,28.175663 
z"/>
<path fill="#21C3A8" opacity="1.000000" stroke="none" 
	d="
M364.492340,23.263613 
	C364.492340,23.263609 364.764221,23.313456 365.317780,23.251133 
	C367.921143,23.201029 369.970917,23.213245 372.020721,23.225464 
	C372.020721,23.225464 372.197205,23.373692 372.476288,23.591536 
	C373.121796,23.996161 373.488190,24.182940 373.854614,24.369715 
	C373.958221,24.625698 374.130341,24.821491 374.598450,25.395844 
	C374.560608,28.559891 374.295227,31.285187 374.029816,34.010483 
	C373.757446,34.149143 373.504913,34.317551 372.731934,34.716133 
	C369.184967,34.779774 366.178253,34.642982 363.171570,34.506187 
	C362.621124,33.779144 362.070679,33.052097 361.325531,31.748930 
	C361.462219,29.145342 361.793579,27.117872 362.124939,25.090401 
	C362.124939,25.090401 362.023499,25.025375 362.364807,25.003639 
	C363.301544,24.409142 363.896942,23.836380 364.492340,23.263613 
z"/>
<path fill="#9EAAB7" opacity="1.000000" stroke="none" 
	d="
M14.693748,98.049744 
	C34.356495,97.869400 53.719311,97.944641 73.544815,98.361252 
	C74.010979,99.079849 74.014442,99.457077 73.652908,99.871658 
	C72.555992,99.953705 71.824074,99.998375 70.698784,100.038513 
	C69.781303,100.069336 69.257202,100.104691 68.284630,100.080078 
	C50.758396,100.020111 33.680634,100.020111 16.437418,100.020111 
	C16.702578,106.520035 20.861715,107.817131 25.023661,109.371216 
	C25.034496,109.979607 25.046703,110.326691 25.058908,110.673775 
	C16.909933,109.338562 13.782335,105.711441 14.693748,98.049744 
z"/>
<path fill="#919DAD" opacity="1.000000" stroke="none" 
	d="
M22.890566,17.018803 
	C22.890566,42.054947 22.890566,67.091087 22.890566,93.358955 
	C22.073029,91.735725 21.760248,91.114693 21.237082,89.916527 
	C20.998497,88.898964 20.970297,88.458534 20.942097,88.018105 
	C20.977150,87.564575 21.012201,87.111046 21.051888,85.886772 
	C21.019688,83.083664 20.982851,81.051292 20.946012,79.018929 
	C21.014339,58.667278 21.082666,38.315628 21.479263,17.491905 
	C22.168545,17.019487 22.529554,17.019144 22.890566,17.018803 
z"/>
<path fill="#8A9BA9" opacity="1.000000" stroke="none" 
	d="
M152.891953,110.654755 
	C152.470352,110.734573 152.048737,110.814392 150.886688,110.903793 
	C148.430969,110.950859 146.715683,110.988327 145.000397,111.025787 
	C131.994675,110.956284 118.988953,110.886772 105.509476,110.500923 
	C105.033264,109.831779 105.030815,109.478966 105.399567,109.079544 
	C106.515541,108.971100 107.260307,108.909271 108.470284,108.905121 
	C123.623299,108.989510 138.311111,109.016220 152.993805,109.312881 
	C152.956436,109.940140 152.924194,110.297447 152.891953,110.654755 
z"/>
<path fill="#8A9BA9" opacity="1.000000" stroke="none" 
	d="
M25.518543,110.743805 
	C25.046703,110.326691 25.034496,109.979607 25.488998,109.332794 
	C42.294197,109.065697 58.632687,109.098335 74.977005,109.494263 
	C74.999825,110.099167 75.016823,110.340790 75.033813,110.582413 
	C58.681934,110.659561 42.330055,110.736702 25.518543,110.743805 
z"/>
<path fill="#C7F7F2" opacity="1.000000" stroke="none" 
	d="
M475.017090,51.402359 
	C479.076233,50.316883 483.114380,49.171455 487.171936,49.098022 
	C488.929169,49.066219 490.726379,51.244869 493.115387,52.822170 
	C485.658539,54.418575 479.733887,55.686962 473.430725,57.008808 
	C473.702789,55.300591 474.353363,53.538910 475.017090,51.402359 
z"/>
<path fill="#F2F6FC" opacity="1.000000" stroke="none" 
	d="
M162.183197,77.016281 
	C162.139618,63.653263 162.096039,50.290249 162.127441,36.463829 
	C162.951019,36.711586 164.339371,37.411224 164.352402,38.135616 
	C164.554230,49.352196 164.607224,60.571980 164.612274,71.791054 
	C164.613083,73.584885 164.214142,75.378906 163.760254,77.488831 
	C163.074738,77.541985 162.628952,77.279129 162.183197,77.016281 
z"/>
<path fill="#B8F4EB" opacity="1.000000" stroke="none" 
	d="
M419.610962,76.949417 
	C419.538666,65.025139 419.816589,52.974720 420.087036,40.455250 
	C420.695526,40.807980 421.861908,41.641632 421.844482,42.449753 
	C421.605652,53.521755 421.212280,64.590538 420.806061,75.658257 
	C420.791473,76.056389 420.254608,76.435364 419.610962,76.949417 
z"/>
<path fill="#F2F6FC" opacity="1.000000" stroke="none" 
	d="
M162.565857,33.881145 
	C162.127350,27.615759 162.163834,21.230688 161.956314,14.853555 
	C161.872650,12.282425 161.254791,9.728676 160.836777,6.767430 
	C163.615921,3.873046 164.021332,6.598335 164.661026,8.283309 
	C165.225571,9.770347 165.419571,11.398055 165.787888,13.010419 
	C165.302856,14.009988 164.173340,15.322633 164.090744,16.698151 
	C163.841980,20.840757 164.094147,25.011040 163.952103,29.163729 
	C163.899292,30.707069 163.295410,32.231560 162.565857,33.881145 
z"/>
<path fill="#05BC9B" opacity="1.000000" stroke="none" 
	d="
M550.983826,41.182503 
	C550.989197,50.500500 551.041870,59.818947 550.952759,69.136040 
	C550.938110,70.670189 550.300781,72.198372 549.574463,73.831696 
	C549.197693,73.934082 548.976074,74.061256 548.949097,73.791687 
	C548.861633,73.333801 548.801208,73.145470 548.740723,72.957130 
	C548.787354,62.609573 548.834045,52.262012 549.249329,41.458958 
	C550.073242,41.063141 550.528564,41.122822 550.983826,41.182503 
z"/>
<path fill="#C7F7F2" opacity="1.000000" stroke="none" 
	d="
M464.664703,64.734406 
	C457.501862,65.032791 450.053040,65.032791 442.182922,65.032791 
	C442.182922,62.310535 442.182922,59.951385 442.182922,56.822117 
	C448.171326,56.822117 454.088104,56.822117 460.462646,56.881527 
	C459.664703,57.472904 458.418335,58.426666 457.151428,58.454754 
	C453.850250,58.527958 450.507965,57.872120 447.250305,58.195019 
	C446.065796,58.312428 445.074371,60.378063 443.994843,61.554806 
	C445.149353,62.375908 446.260956,63.828377 447.465759,63.910297 
	C453.089355,64.292679 458.738647,64.296722 464.664703,64.734406 
z"/>
<path fill="#9EAAB7" opacity="1.000000" stroke="none" 
	d="
M75.400864,110.722214 
	C75.016823,110.340790 74.999825,110.099167 75.382339,109.431305 
	C84.186592,108.950439 92.591339,108.895813 101.398125,108.886841 
	C102.876221,108.997055 103.952293,109.061607 105.028366,109.126160 
	C105.030815,109.478966 105.033264,109.831779 105.048065,110.447540 
	C95.296242,110.761009 85.532074,110.811516 75.400864,110.722214 
z"/>
<path fill="#B8F4EB" opacity="1.000000" stroke="none" 
	d="
M383.044189,84.408249 
	C392.899567,88.769867 402.867188,89.676208 413.341736,84.716751 
	C411.133820,86.098900 408.570709,88.714195 405.982513,88.739288 
	C399.329742,88.803833 392.655090,87.808624 386.017365,87.004280 
	C384.958313,86.875938 384.045044,85.544640 383.044189,84.408249 
z"/>
<path fill="#C7F7F2" opacity="1.000000" stroke="none" 
	d="
M505.373413,73.658310 
	C504.993134,68.335854 504.698639,62.701336 504.824371,57.076214 
	C504.976868,50.252773 502.756409,44.757812 496.834930,40.614777 
	C501.677856,41.250782 505.728149,45.797047 505.886505,51.524357 
	C506.087494,58.791927 505.750458,66.074379 505.373413,73.658310 
z"/>
<path fill="#C7F7F2" opacity="1.000000" stroke="none" 
	d="
M472.702576,57.064934 
	C469.589111,62.080242 468.685822,67.116989 473.067566,72.529526 
	C471.962830,71.955223 470.829407,70.957909 469.584259,70.128326 
	C468.694336,69.535454 467.654480,69.167580 466.382599,68.814133 
	C465.760956,67.866913 465.438263,66.804840 465.049133,65.396805 
	C466.007294,64.280579 467.197144,63.654358 468.020844,62.709042 
	C469.572906,60.927887 470.913971,58.962864 472.702576,57.064934 
z"/>
<path fill="#C7F7F2" opacity="1.000000" stroke="none" 
	d="
M428.599335,31.344801 
	C428.912598,45.037029 428.963318,59.044289 428.926697,73.509735 
	C428.572601,73.385185 428.071228,72.801506 428.073578,72.219856 
	C428.128265,58.699715 428.237579,45.179798 428.599335,31.344801 
z"/>
<path fill="#C7F7F2" opacity="1.000000" stroke="none" 
	d="
M429.154999,75.176346 
	C440.764374,74.832710 452.396332,74.873268 464.492249,74.934967 
	C463.572083,75.297897 462.197266,75.889183 460.802307,75.941460 
	C450.882446,76.313210 440.958954,76.598839 431.034515,76.812973 
	C430.424835,76.826118 429.796997,75.997505 429.154999,75.176346 
z"/>
<path fill="#C7F7F2" opacity="1.000000" stroke="none" 
	d="
M496.666870,39.949051 
	C489.013275,39.190231 481.285645,38.783924 473.435028,42.042496 
	C475.343811,40.800442 477.608032,38.516140 479.944580,38.439579 
	C485.457947,38.258919 491.005829,39.129642 496.666870,39.949051 
z"/>
<path fill="#C8F8F4" opacity="1.000000" stroke="none" 
	d="
M363.245361,34.902424 
	C366.178253,34.642982 369.184967,34.779774 372.574829,34.881474 
	C373.133820,36.077957 373.309631,37.309525 373.728149,39.064571 
	C373.960846,39.771694 373.950806,39.955341 373.940735,40.138992 
	C370.584961,40.058517 367.229218,39.978039 363.417603,39.844856 
	C365.161041,38.919888 367.360321,38.047623 368.943787,37.419609 
	C367.612549,36.917625 365.465851,36.108139 363.245361,34.902424 
z"/>
<path fill="#A0A8B2" opacity="1.000000" stroke="none" 
	d="
M22.949699,16.610992 
	C22.529554,17.019144 22.168545,17.019487 21.537979,17.029593 
	C20.618662,8.751100 22.348778,6.872923 30.682764,6.832226 
	C32.808437,6.821846 34.934196,6.829307 37.524162,7.164716 
	C37.986465,7.692108 37.984528,7.883354 37.982586,8.074598 
	C35.655190,8.102578 33.326817,8.097104 31.000584,8.164946 
	C24.579737,8.352201 23.326153,9.626587 22.949699,16.610992 
z"/>
<path fill="#C8F8F4" opacity="1.000000" stroke="none" 
	d="
M361.673187,41.086914 
	C362.093719,51.710030 362.145813,62.385826 362.096497,73.518524 
	C361.662323,71.430946 361.145203,68.894699 361.031067,66.340446 
	C360.677704,58.434425 360.458038,50.522018 360.266876,42.610153 
	C360.255280,42.128613 360.942627,41.630177 361.673187,41.086914 
z"/>
<path fill="#B1EDE3" opacity="1.000000" stroke="none" 
	d="
M551.429382,41.111805 
	C550.528564,41.122822 550.073242,41.063141 549.272705,40.989159 
	C549.510986,40.309288 550.017029,39.181435 550.693237,39.068062 
	C552.456360,38.772469 554.294128,38.891094 556.101929,38.898552 
	C562.277405,38.924019 562.277344,38.932892 561.491455,45.698509 
	C561.135681,38.684063 555.755493,41.277466 551.429382,41.111805 
z"/>
<path fill="#C7F7F2" opacity="1.000000" stroke="none" 
	d="
M473.119720,73.235596 
	C478.387939,73.478333 483.657898,74.102966 489.378143,74.701904 
	C485.279236,78.482079 476.898041,77.950958 473.119720,73.235596 
z"/>
<path fill="#B8F4EB" opacity="1.000000" stroke="none" 
	d="
M391.333435,73.244133 
	C396.488434,72.450508 401.941162,71.933830 408.047424,71.355225 
	C407.550629,72.535469 406.809601,74.295914 405.754028,76.187897 
	C405.037018,74.468361 404.823364,73.135345 401.977600,73.646248 
	C398.643768,74.244789 395.089691,73.616943 391.333435,73.244133 
z"/>
<path fill="#B8F4EB" opacity="1.000000" stroke="none" 
	d="
M404.914734,76.331650 
	C401.639557,80.202148 397.376404,79.098961 392.811646,77.679024 
	C396.521515,77.024315 400.525970,76.629219 404.914734,76.331650 
z"/>
<path fill="#A7B1BE" opacity="1.000000" stroke="none" 
	d="
M153.228302,110.728455 
	C152.924194,110.297447 152.956436,109.940140 153.227081,109.072906 
	C155.908539,106.697296 158.351593,104.831612 161.078705,102.972305 
	C161.552170,102.980835 161.741592,102.982986 161.931000,102.985138 
	C159.765533,105.440094 157.600067,107.895050 155.186829,110.562317 
	C154.480911,110.783806 154.022781,110.792984 153.228302,110.728455 
z"/>
<path fill="#CAF6F1" opacity="1.000000" stroke="none" 
	d="
M264.741425,47.179817 
	C261.721863,45.036518 258.797943,42.488945 255.812500,39.615738 
	C259.629333,40.753937 264.266754,41.296345 264.741425,47.179817 
z"/>
<path fill="#B8F4EB" opacity="1.000000" stroke="none" 
	d="
M419.920471,39.554451 
	C416.961609,39.934227 413.914185,39.936699 410.422607,39.835690 
	C413.103119,36.710030 416.453583,37.695866 419.920471,39.554451 
z"/>
<path fill="#C7F7F2" opacity="1.000000" stroke="none" 
	d="
M471.617188,43.062241 
	C472.911560,45.442047 473.885590,47.858162 474.909210,50.623726 
	C471.153625,49.550179 470.509918,46.657009 471.617188,43.062241 
z"/>
<path fill="#C8F8F4" opacity="1.000000" stroke="none" 
	d="
M374.426514,33.997826 
	C374.295227,31.285187 374.560608,28.559891 374.784119,25.466002 
	C377.921631,28.115309 377.951691,31.414204 374.426514,33.997826 
z"/>
<path fill="#B1EDE3" opacity="1.000000" stroke="none" 
	d="
M561.497803,63.685772 
	C561.183899,59.641788 561.107910,55.265480 561.146362,50.435387 
	C561.419006,54.438881 561.577332,58.896164 561.497803,63.685772 
z"/>
<path fill="#C8F8F4" opacity="1.000000" stroke="none" 
	d="
M361.763062,25.108665 
	C361.793579,27.117872 361.462219,29.145342 361.118774,31.570435 
	C357.548889,29.530315 358.780273,27.298719 361.763062,25.108665 
z"/>
<path fill="#F2F4F9" opacity="1.000000" stroke="none" 
	d="
M145.081650,111.386597 
	C146.715683,110.988327 148.430969,110.950859 150.571609,110.971710 
	C149.426941,114.316177 147.342148,113.415817 145.081650,111.386597 
z"/>
<path fill="#9EAAB7" opacity="1.000000" stroke="none" 
	d="
M38.188931,8.254572 
	C37.984528,7.883354 37.986465,7.692108 37.985443,7.213668 
	C38.482746,6.682617 38.983006,6.438759 39.749725,6.096613 
	C40.266983,6.216478 40.517780,6.434631 40.877872,7.119538 
	C40.987167,7.586292 41.033504,8.055545 40.956982,8.347787 
	C40.751007,8.794310 40.621552,8.948589 40.492096,9.102870 
	C39.793156,8.880095 39.094215,8.657319 38.188931,8.254572 
z"/>
<path fill="#F2F4F9" opacity="1.000000" stroke="none" 
	d="
M162.118164,77.337212 
	C162.628952,77.279129 163.074738,77.541985 163.760025,77.902924 
	C164.080170,78.861374 164.160797,79.721725 164.241425,80.582077 
	C163.537811,80.445343 162.834198,80.308609 161.951782,79.885498 
	C161.866379,78.952126 161.959747,78.305138 162.118164,77.337212 
z"/>
<path fill="#8DDED1" opacity="1.000000" stroke="none" 
	d="
M374.913208,71.876518 
	C374.549408,70.914284 374.417450,69.713905 374.479950,68.269913 
	C377.133759,68.930298 377.083252,70.161346 374.913208,71.876518 
z"/>
<path fill="#B8F4EB" opacity="1.000000" stroke="none" 
	d="
M385.763306,75.725174 
	C385.493958,77.146049 384.999939,78.348564 384.243286,79.738235 
	C384.500031,78.452530 385.019348,76.979668 385.763306,75.725174 
z"/>
<path fill="#C7F7F2" opacity="1.000000" stroke="none" 
	d="
M465.308167,74.920486 
	C465.141418,73.802910 465.317230,72.658600 465.741791,71.278160 
	C465.877258,72.325935 465.764008,73.609848 465.308167,74.920486 
z"/>
<path fill="#F2F6FC" opacity="1.000000" stroke="none" 
	d="
M20.684021,79.285805 
	C20.982851,81.051292 21.019688,83.083664 21.001514,85.548386 
	C20.771679,83.838051 20.596855,81.695366 20.684021,79.285805 
z"/>
<path fill="#C8F8F4" opacity="1.000000" stroke="none" 
	d="
M371.792175,22.901215 
	C369.970917,23.213245 367.921143,23.201029 365.431396,23.172398 
	C367.182159,22.962980 369.372925,22.769972 371.792175,22.901215 
z"/>
<path fill="#B1EDE3" opacity="1.000000" stroke="none" 
	d="
M561.410522,73.723335 
	C561.121338,71.945816 561.077332,69.891335 561.147461,67.409729 
	C561.393005,69.137192 561.524353,71.291786 561.410522,73.723335 
z"/>
<path fill="#B8F4EB" opacity="1.000000" stroke="none" 
	d="
M414.073975,84.726418 
	C414.544708,83.750984 415.376556,82.859047 416.512970,81.890793 
	C416.023376,82.812958 415.229248,83.811440 414.073975,84.726418 
z"/>
<path fill="#8DDED1" opacity="1.000000" stroke="none" 
	d="
M373.980957,40.331062 
	C373.950806,39.955341 373.960846,39.771694 374.005188,39.314644 
	C374.839752,39.286926 375.640045,39.532612 376.440308,39.778301 
	C376.048615,40.163025 375.656891,40.547745 374.933563,40.961777 
	C374.309570,40.957798 374.115997,40.801811 373.980957,40.331062 
z"/>
<path fill="#B8F4EB" opacity="1.000000" stroke="none" 
	d="
M417.139221,81.751099 
	C417.241974,80.875862 417.685272,79.890869 418.411774,78.735489 
	C418.289917,79.590515 417.884857,80.615929 417.139221,81.751099 
z"/>
<path fill="#B8F4EB" opacity="1.000000" stroke="none" 
	d="
M391.831512,76.986542 
	C391.069031,77.044090 390.230835,76.796394 389.199066,76.278183 
	C389.922272,76.232216 390.839020,76.456749 391.831512,76.986542 
z"/>
<path fill="#CAF6F1" opacity="1.000000" stroke="none" 
	d="
M266.280334,50.810410 
	C265.647217,50.230137 265.241516,49.467171 264.823761,48.367981 
	C265.377045,48.897076 265.942383,49.762394 266.280334,50.810410 
z"/>
<path fill="#B1EDE3" opacity="1.000000" stroke="none" 
	d="
M543.115967,74.892151 
	C542.898865,74.420151 542.974182,73.970215 543.187073,73.206154 
	C543.716980,73.308434 544.109253,73.724846 544.501587,74.141251 
	C544.137207,74.398903 543.772766,74.656563 543.115967,74.892151 
z"/>
<path fill="#C8F8F4" opacity="1.000000" stroke="none" 
	d="
M364.121521,23.208076 
	C363.896942,23.836380 363.301544,24.409142 362.399048,25.053213 
	C362.644867,24.467194 363.197784,23.809866 364.121521,23.208076 
z"/>
<path fill="#B1EDE3" opacity="1.000000" stroke="none" 
	d="
M543.487061,68.864525 
	C543.226685,68.572731 543.148926,68.112930 543.175171,67.314590 
	C543.409302,67.549530 543.539429,68.123024 543.487061,68.864525 
z"/>
<path fill="#F2F6FC" opacity="1.000000" stroke="none" 
	d="
M20.712580,88.193024 
	C20.970297,88.458534 20.998497,88.898964 21.007530,89.670784 
	C20.988363,90.002174 20.494972,90.000221 20.248299,89.999496 
	C20.162106,89.455170 20.322584,88.911560 20.712580,88.193024 
z"/>
<path fill="#C8F8F4" opacity="1.000000" stroke="none" 
	d="
M362.494202,40.111679 
	C362.695343,40.296253 362.605225,40.566353 362.218750,40.918678 
	C362.011292,40.729549 362.104797,40.461651 362.494202,40.111679 
z"/>
<path fill="#C8F8F4" opacity="1.000000" stroke="none" 
	d="
M373.744232,24.049831 
	C373.488190,24.182940 373.121796,23.996161 372.582703,23.547348 
	C372.817963,23.433527 373.225922,23.581736 373.744232,24.049831 
z"/>
<path fill="#B8F4EB" opacity="1.000000" stroke="none" 
	d="
M382.993774,81.158386 
	C383.186523,81.162498 383.104340,81.640457 382.942291,81.820915 
	C382.684265,81.791931 382.570007,81.587601 382.508667,81.368477 
	C382.497223,81.327530 382.698120,81.227196 382.993774,81.158386 
z"/>
<path fill="#B8F4EB" opacity="1.000000" stroke="none" 
	d="
M383.724579,80.127075 
	C383.843811,80.324265 383.741638,80.642662 383.399078,81.064064 
	C383.273529,80.860809 383.388336,80.554550 383.724579,80.127075 
z"/>
<path fill="#B1EDE3" opacity="1.000000" stroke="none" 
	d="
M548.585266,73.059906 
	C548.801208,73.145470 548.861633,73.333801 548.821655,73.801353 
	C548.580505,73.890755 548.415100,73.713158 548.312317,73.504646 
	C548.274719,73.428474 548.386292,73.278824 548.585266,73.059906 
z"/>
<path fill="#324462" opacity="1.000000" stroke="none" 
	d="
M150.212524,8.037554 
	C152.098251,8.858953 153.983963,9.680352 155.463348,10.853163 
	C154.696106,12.852919 154.030136,14.499501 154.020584,16.149878 
	C153.898468,37.293354 153.870239,58.437370 153.798706,79.692963 
	C153.779205,79.804680 153.983627,79.902946 153.581970,79.880157 
	C152.123810,79.787292 151.067337,79.717232 150.020813,79.200607 
	C149.948868,58.179436 149.866974,37.604820 149.841553,16.637169 
	C149.870529,11.407504 146.042114,12.372181 143.385147,12.342794 
	C129.289597,12.186897 115.191017,12.209025 101.094513,12.311648 
	C97.945801,12.334570 96.224640,11.589195 97.614365,8.083092 
	C115.450737,8.068583 132.831635,8.053069 150.212524,8.037554 
z"/>
<path fill="#8693AC" opacity="1.000000" stroke="none" 
	d="
M97.158882,8.082088 
	C96.224640,11.589195 97.945801,12.334570 101.094513,12.311648 
	C115.191017,12.209025 129.289597,12.186897 143.385147,12.342794 
	C146.042114,12.372181 149.870529,11.407504 149.576447,16.626221 
	C148.900452,16.989698 148.546021,16.971085 148.052338,16.800838 
	C147.801117,16.385382 147.621796,16.180487 147.319489,15.590767 
	C146.249237,14.760327 145.234634,14.037509 144.219910,14.037330 
	C128.802826,14.034606 113.385719,14.126509 97.750824,14.118725 
	C97.533028,14.041160 97.070564,14.049552 96.688278,14.041390 
	C95.797226,14.070537 95.288475,14.107845 94.398560,14.129396 
	C92.830704,14.545780 91.630501,14.944512 90.460312,15.417509 
	C88.462425,16.225065 86.541000,16.920568 85.951416,13.402401 
	C87.699768,11.954060 89.491272,10.892444 92.200600,9.286937 
	C87.891579,8.483002 84.450249,8.188665 80.975357,9.619608 
	C80.874413,8.932813 80.807831,8.542336 81.063889,8.092518 
	C81.921570,7.696616 82.456596,7.360056 82.991631,7.023498 
	C86.364746,6.990246 89.737854,6.956994 93.796288,7.238954 
	C95.374031,7.730139 96.266457,7.906114 97.158882,8.082088 
z"/>
<path fill="#7E90AE" opacity="1.000000" stroke="none" 
	d="
M153.818192,79.581253 
	C153.870239,58.437370 153.898468,37.293354 154.020584,16.149878 
	C154.030136,14.499501 154.696106,12.852919 155.461945,11.236155 
	C155.930893,33.727268 155.994888,56.186798 156.037445,79.080238 
	C156.015976,79.514145 156.185059,79.763077 155.730804,79.854630 
	C154.790421,79.824539 154.304306,79.702896 153.818192,79.581253 
z"/>
<path fill="#899CB8" opacity="1.000000" stroke="none" 
	d="
M97.614365,8.083093 
	C96.266457,7.906114 95.374031,7.730139 94.252571,7.301959 
	C112.563286,7.149831 131.103043,7.249910 149.927658,7.693771 
	C132.831635,8.053069 115.450737,8.068583 97.614365,8.083093 
z"/>
<path fill="#899CB8" opacity="1.000000" stroke="none" 
	d="
M82.526505,6.965946 
	C82.456596,7.360056 81.921570,7.696616 80.619087,8.088320 
	C66.912262,8.114157 53.972881,8.084850 41.033504,8.055545 
	C41.033504,8.055545 40.987167,7.586292 40.975613,7.351355 
	C54.663166,7.047077 68.362274,6.977736 82.526505,6.965946 
z"/>
<path fill="#E9F6F5" opacity="1.000000" stroke="none" 
	d="
M190.844650,60.794487 
	C190.843048,55.011490 190.943634,49.701332 190.797745,44.397953 
	C190.709839,41.201633 191.254654,39.135136 195.185883,39.998779 
	C196.438110,40.273880 197.821442,39.900425 199.143509,39.918179 
	C206.012115,40.010429 210.897003,44.117352 211.594208,50.349274 
	C212.404236,57.589649 208.554688,63.108662 201.480331,64.449898 
	C199.069580,64.906952 196.527206,64.619034 194.064453,64.865868 
	C191.210052,65.151970 190.645401,63.605595 190.844650,60.794487 
z"/>
<path fill="#E0F6F5" opacity="1.000000" stroke="none" 
	d="
M407.849976,57.610367 
	C406.553467,62.358757 403.152863,63.925484 399.379120,62.847820 
	C396.985809,62.164368 394.223785,59.826206 393.313232,57.554337 
	C391.765656,53.693039 395.041565,49.728786 399.273682,49.141960 
	C404.408478,48.429970 407.646027,51.452194 407.849976,57.610367 
z"/>
<path fill="#CEF8F6" opacity="1.000000" stroke="none" 
	d="
M489.074341,67.286667 
	C487.272552,67.450714 485.621094,67.893288 484.431305,67.341087 
	C483.354218,66.841171 482.133148,65.234772 482.168243,64.155060 
	C482.203125,63.083241 483.598022,61.340073 484.621613,61.158192 
	C487.099548,60.717876 489.708496,61.015202 492.264648,61.015202 
	C492.556274,61.426483 492.847900,61.837765 493.139557,62.249050 
	C491.901611,63.876671 490.663666,65.504295 489.074341,67.286667 
z"/>
<path fill="#CEF8F6" opacity="1.000000" stroke="none" 
	d="
M245.358948,54.029247 
	C243.804123,53.941601 242.684616,53.858025 241.292282,53.754082 
	C241.994186,49.570869 244.605209,47.958458 248.216019,48.084660 
	C251.496002,48.199295 254.327255,49.379974 254.697128,54.033318 
	C251.604950,54.033318 248.699615,54.033318 245.358948,54.029247 
z"/>
<path fill="#A0A8B2" opacity="1.000000" stroke="none" 
	d="
M153.798706,79.692963 
	C154.304306,79.702896 154.790421,79.824539 155.651886,79.982742 
	C155.689331,95.954552 155.689331,95.950996 139.622147,95.957581 
	C103.635452,95.972343 67.648750,96.002151 31.662077,95.982674 
	C29.292656,95.981384 26.923431,95.615837 24.554115,95.419724 
	C24.581194,94.910919 24.608273,94.402122 24.635349,93.893318 
	C26.149294,93.893318 27.663239,93.893318 29.985943,93.914452 
	C31.874756,93.875702 32.954807,93.815819 34.497177,93.814919 
	C72.232147,93.891037 109.504807,93.917053 146.777420,93.891586 
	C148.211761,93.890602 149.645782,93.394173 151.463287,93.060074 
	C155.848282,89.165733 153.392029,84.285522 153.983627,79.902946 
	C153.983627,79.902946 153.779205,79.804680 153.798706,79.692963 
z"/>
<path fill="#ECF4FC" opacity="1.000000" stroke="none" 
	d="
M34.034863,93.755936 
	C32.954807,93.815819 31.874756,93.875702 30.391895,93.872894 
	C29.679850,92.766617 29.370609,91.723015 29.296867,90.309914 
	C29.708851,89.899384 29.885336,89.858353 30.521833,89.881882 
	C39.281704,89.962524 47.581562,89.977875 55.881420,89.994827 
	C85.592384,90.055519 115.303345,90.116760 144.893860,90.555176 
	C142.912415,91.288467 141.052002,91.951210 139.190338,91.954735 
	C105.991852,92.017525 72.793129,91.972153 39.594833,92.075279 
	C37.739788,92.081039 35.888111,93.170746 34.034863,93.755936 
z"/>
<path fill="#394A67" opacity="1.000000" stroke="none" 
	d="
M40.956982,8.347787 
	C53.972881,8.084850 66.912262,8.114157 80.296448,8.147661 
	C80.807831,8.542336 80.874413,8.932813 81.099632,9.856997 
	C81.185150,11.327800 81.112038,12.264895 81.046661,13.141333 
	C81.054405,13.080674 81.169891,13.120947 80.809540,13.106880 
	C79.740509,13.034983 79.031822,12.977152 77.903862,13.063478 
	C76.634048,13.410431 75.783524,13.613225 74.501328,13.644857 
	C63.072666,13.514818 52.075665,13.555942 41.003571,13.122414 
	C40.806679,12.351448 40.684883,12.055132 40.563091,11.758815 
	C40.532001,11.095469 40.500912,10.432125 40.480961,9.435825 
	C40.621552,8.948589 40.751007,8.794310 40.956982,8.347787 
z"/>
<path fill="#919DAD" opacity="1.000000" stroke="none" 
	d="
M27.134642,81.958420 
	C27.096811,60.289295 27.058983,38.620174 27.341146,16.478586 
	C28.028700,15.999496 28.396259,15.992873 28.827339,16.242098 
	C28.942066,16.666016 28.993271,16.834087 28.991913,17.468245 
	C28.988970,38.956593 29.038591,59.978851 29.018076,81.238815 
	C28.947939,81.476517 28.799732,81.949333 28.522026,81.958916 
	C27.874426,81.965141 27.504534,81.961777 27.134642,81.958420 
z"/>
<path fill="#9CA5B2" opacity="1.000000" stroke="none" 
	d="
M162.108521,102.632370 
	C161.741592,102.982986 161.552170,102.980835 161.100739,102.552841 
	C160.338776,101.423340 159.826874,100.099060 159.340698,100.108452 
	C151.055359,100.268433 142.773193,100.593651 134.303772,100.659225 
	C133.755142,100.324570 133.393051,100.213142 132.689880,100.047203 
	C131.889923,100.018242 131.431076,100.043800 130.508820,100.020844 
	C124.016846,100.282272 117.988274,100.592216 111.924820,100.857605 
	C111.889938,100.813034 111.778038,100.795982 111.490555,100.639107 
	C110.133209,100.293503 109.063339,100.104767 107.888214,99.686722 
	C107.530846,99.022705 107.278740,98.588005 107.026627,98.153305 
	C125.416084,98.153305 143.805542,98.153305 162.947815,98.153305 
	C162.705902,99.661636 162.495972,100.970612 162.108521,102.632370 
z"/>
<path fill="#95A0B2" opacity="1.000000" stroke="none" 
	d="
M106.560349,98.077850 
	C107.278740,98.588005 107.530846,99.022705 107.556213,99.892288 
	C96.225624,100.162880 85.121765,99.998589 74.017906,99.834297 
	C74.014442,99.457077 74.010979,99.079849 74.011139,98.420395 
	C84.707870,98.092911 95.400970,98.047661 106.560349,98.077850 
z"/>
<path fill="#9EAAB7" opacity="1.000000" stroke="none" 
	d="
M28.763819,15.986251 
	C28.396259,15.992873 28.028700,15.999496 27.386032,16.013199 
	C26.510340,12.898932 28.721832,12.423034 30.902229,12.240993 
	C33.828918,11.996646 36.778458,12.025926 40.140640,11.848276 
	C40.684883,12.055132 40.806679,12.351448 41.054916,13.294993 
	C41.181366,13.942223 41.071220,14.285213 40.633453,14.207655 
	C38.126148,14.157700 36.056614,14.185303 33.616467,14.161814 
	C31.751844,14.735897 30.257832,15.361074 28.763819,15.986251 
z"/>
<path fill="#A7B1BE" opacity="1.000000" stroke="none" 
	d="
M27.071098,82.377441 
	C27.504534,81.961777 27.874426,81.965141 28.587296,82.349091 
	C29.287952,84.465248 29.645632,86.200813 30.009731,88.250275 
	C30.031376,88.981895 30.046598,89.399605 30.061823,89.817322 
	C29.885336,89.858353 29.708851,89.899384 29.263542,89.980667 
	C28.332329,87.612778 27.669941,85.204620 27.071098,82.377441 
z"/>
<path fill="#ECF4FC" opacity="1.000000" stroke="none" 
	d="
M26.472822,91.456955 
	C26.521664,91.429268 26.423981,91.484642 26.472822,91.456955 
z"/>
<path fill="#11C4A7" opacity="1.000000" stroke="none" 
	d="
M351.110657,45.859520 
	C349.869904,47.403778 348.786987,48.620129 347.432434,50.141621 
	C348.367249,51.550228 349.125092,53.278461 350.382233,54.487541 
	C356.673798,60.538532 356.147858,67.087288 348.360443,70.981567 
	C344.803162,72.760490 340.545593,73.590065 336.532135,73.900978 
	C330.406189,74.375526 324.214142,73.927391 318.054840,74.070938 
	C315.118958,74.139374 313.889130,73.230560 313.923859,70.097885 
	C314.052765,58.468586 313.874298,46.835381 314.069580,35.207981 
	C314.093018,33.813469 315.740845,31.222971 316.564148,31.251511 
	C326.447845,31.594112 336.538391,29.010735 346.189056,32.892319 
	C352.283600,35.343609 353.948212,39.666492 351.110657,45.859520 
M334.184265,56.309563 
	C333.356049,56.308620 332.527740,56.301441 331.699585,56.307846 
	C328.465851,56.332851 325.226685,55.429211 325.084442,60.930565 
	C324.936066,66.668800 328.208405,66.009583 331.715790,65.917274 
	C332.543457,65.895493 333.378693,65.979088 334.199219,65.899101 
	C337.663269,65.561394 342.291962,66.678757 342.818054,61.516094 
	C343.405609,55.750504 338.247772,57.210552 334.184265,56.309563 
M330.658234,47.709633 
	C332.640167,47.664570 334.901489,48.200031 336.528229,47.417007 
	C338.280182,46.573711 339.437469,44.494938 340.854187,42.955173 
	C339.394684,41.625580 338.138184,39.756287 336.421417,39.110485 
	C334.511230,38.391926 332.181213,38.802197 330.035309,38.694183 
	C327.728882,38.578087 325.194000,37.914433 325.223419,41.698658 
	C325.248474,44.923203 324.727966,48.373619 330.658234,47.709633 
z"/>
<path fill="#F2F5F7" opacity="1.000000" stroke="none" 
	d="
M100.996094,108.841187 
	C92.591339,108.895813 84.186592,108.950439 75.376511,109.068024 
	C58.632687,109.098335 42.294197,109.065697 25.490368,109.071487 
	C20.861715,107.817131 16.702578,106.520035 16.437418,100.020111 
	C33.680634,100.020111 50.758396,100.020111 68.363739,100.441376 
	C69.913277,105.075348 73.163086,105.937347 76.818947,105.984299 
	C84.877769,106.087814 92.937851,106.094223 100.998199,106.478424 
	C100.998016,107.491463 100.997055,108.166321 100.996094,108.841187 
z"/>
<path fill="#F0F3F9" opacity="1.000000" stroke="none" 
	d="
M101.398125,108.886841 
	C100.997055,108.166321 100.998016,107.491463 101.350983,106.369949 
	C103.224731,102.908730 100.513252,104.064880 99.633316,104.052910 
	C92.054153,103.949921 84.472916,103.969849 76.892517,104.003571 
	C74.005165,104.016411 71.619904,103.424080 71.092163,100.043045 
	C71.824074,99.998375 72.555992,99.953705 73.652908,99.871658 
	C85.121765,99.998589 96.225624,100.162880 107.661476,100.121605 
	C109.063339,100.104767 110.133209,100.293503 111.553253,101.028748 
	C110.603973,103.999329 109.304527,106.423386 108.005081,108.847443 
	C107.260307,108.909271 106.515541,108.971100 105.399567,109.079544 
	C103.952293,109.061607 102.876221,108.997055 101.398125,108.886841 
z"/>
<path fill="#ACB2BD" opacity="1.000000" stroke="none" 
	d="
M70.698784,100.038513 
	C71.619904,103.424080 74.005165,104.016411 76.892517,104.003571 
	C84.472916,103.969849 92.054153,103.949921 99.633316,104.052910 
	C100.513252,104.064880 103.224731,102.908730 101.350197,106.031769 
	C92.937851,106.094223 84.877769,106.087814 76.818947,105.984299 
	C73.163086,105.937347 69.913277,105.075348 68.812210,100.501343 
	C69.257202,100.104691 69.781303,100.069336 70.698784,100.038513 
z"/>
<path fill="#F2F5F7" opacity="1.000000" stroke="none" 
	d="
M108.470284,108.905121 
	C109.304527,106.423386 110.603973,103.999329 111.840729,101.185623 
	C111.778038,100.795982 111.889938,100.813034 112.393623,100.886612 
	C118.922279,100.663239 124.947258,100.366295 130.972229,100.069351 
	C131.431076,100.043800 131.889923,100.018242 132.872345,100.268646 
	C133.760712,100.657211 134.125534,100.769829 134.490341,100.882446 
	C142.773193,100.593651 151.055359,100.268433 159.340698,100.108452 
	C159.826874,100.099060 160.338776,101.423340 160.816681,102.546455 
	C158.351593,104.831612 155.908539,106.697296 153.232208,108.802956 
	C138.311111,109.016220 123.623299,108.989510 108.470284,108.905121 
z"/>
<path fill="#95A0B2" opacity="1.000000" stroke="none" 
	d="
M148.191605,16.952473 
	C148.546021,16.971085 148.900452,16.989698 149.519974,17.019257 
	C149.866974,37.604820 149.948868,58.179436 150.029968,79.670502 
	C149.186462,83.840347 152.170227,88.323990 146.959167,90.074814 
	C146.970001,89.980179 147.053894,89.809135 147.034302,89.534927 
	C147.017853,88.894165 147.020966,88.527626 147.160828,87.801575 
	C147.499680,85.963905 147.701813,84.485756 147.960175,82.672867 
	C147.983398,81.889297 147.950378,81.440468 147.949646,80.530136 
	C147.938950,76.048027 147.895981,72.027420 147.909485,67.540817 
	C148.041183,50.367367 148.116394,33.659920 148.191605,16.952473 
z"/>
<path fill="#ECF4FC" opacity="1.000000" stroke="none" 
	d="
M146.948334,90.169456 
	C152.170227,88.323990 149.186462,83.840347 150.020020,80.117050 
	C151.067337,79.717232 152.123810,79.787292 153.581970,79.880157 
	C153.392029,84.285522 155.848282,89.165733 151.245270,92.784607 
	C149.412033,91.774925 148.180191,90.972191 146.948334,90.169456 
z"/>
<path fill="#F4F4F5" opacity="1.000000" stroke="none" 
	d="
M148.052338,16.800838 
	C148.116394,33.659920 148.041183,50.367367 147.554382,67.632462 
	C145.214630,72.589577 143.368073,76.984100 147.917374,80.991631 
	C147.950378,81.440468 147.983398,81.889297 147.598755,82.754494 
	C145.123367,84.114258 143.072800,85.859329 141.006790,85.877823 
	C118.867752,86.075935 96.726265,86.001213 74.585457,86.001205 
	C61.600620,86.001198 48.615707,85.978256 35.630997,86.018654 
	C32.782742,86.027527 30.068851,86.136871 30.590525,81.968079 
	C30.622515,81.712425 29.613091,81.326454 29.088215,81.001114 
	C29.038591,59.978851 28.988970,38.956593 29.362190,17.467321 
	C31.185717,16.071177 32.586395,15.142041 33.987076,14.212906 
	C36.056614,14.185303 38.126148,14.157700 40.741112,14.574596 
	C42.813374,15.346112 44.337887,15.943007 45.867435,15.956213 
	C55.569180,16.039974 65.272034,15.994704 75.348007,15.986863 
	C76.512817,15.244574 77.304131,14.507405 78.407272,13.648813 
	C79.143715,13.631833 79.568336,13.736275 79.989594,14.179556 
	C80.262970,15.332210 80.539703,16.146025 80.953735,17.334015 
	C85.353386,21.891348 94.297684,20.932461 97.520988,15.997713 
	C114.449135,16.010683 130.912125,16.022600 147.375107,16.034519 
	C147.621796,16.180487 147.801117,16.385382 148.052338,16.800838 
M112.526215,57.486885 
	C112.348694,54.986267 112.171165,52.485649 111.998817,49.999920 
	C111.998817,49.999920 112.012581,50.007427 111.807411,49.348991 
	C110.081963,48.323521 108.356506,47.298046 106.373199,46.119328 
	C109.317024,42.586018 110.377739,39.154995 104.905518,36.035400 
	C102.031937,31.518436 98.760178,35.458138 95.446991,35.818241 
	C94.976143,32.085556 93.807251,29.716343 89.270988,29.757353 
	C84.661102,29.799023 81.514999,30.572405 81.417351,36.969402 
	C77.368164,33.242527 74.619759,33.891731 71.110458,36.990971 
	C67.172729,40.468582 69.089127,43.601166 70.133698,46.963123 
	C64.329376,49.233719 64.329376,49.233719 64.971222,53.552864 
	C63.102890,57.221298 64.394226,60.799145 64.779236,64.570656 
	C65.293892,69.612114 67.374542,73.331657 71.009109,76.375473 
	C71.939796,77.154892 73.556862,77.378853 74.862473,77.389671 
	C77.331039,77.410141 79.802422,77.091072 82.831985,77.376938 
	C89.247566,80.810600 92.580772,79.539452 96.331696,72.024605 
	C99.893387,74.910339 103.332298,75.810104 106.571091,70.608879 
	C111.290016,67.600822 107.213684,64.474632 106.667236,62.285076 
	C108.763885,60.600792 110.398109,59.287983 112.001762,58.003937 
	C112.001762,58.003937 111.979713,58.039665 112.526215,57.486885 
z"/>
<path fill="#F7FBFF" opacity="1.000000" stroke="none" 
	d="
M147.319489,15.590767 
	C130.912125,16.022600 114.449135,16.010683 97.522263,15.738249 
	C97.098862,15.309565 97.139359,15.141397 97.345200,14.881178 
	C97.718895,14.634534 97.871590,14.436922 97.968613,14.196289 
	C113.385719,14.126509 128.802826,14.034606 144.219910,14.037330 
	C145.234634,14.037509 146.249237,14.760327 147.319489,15.590767 
z"/>
<path fill="#EBEFF8" opacity="1.000000" stroke="none" 
	d="
M80.816437,16.959841 
	C80.539703,16.146025 80.262970,15.332210 80.167366,14.020689 
	C80.697853,13.543202 80.971657,13.409189 81.169891,13.120947 
	C81.169891,13.120947 81.054405,13.080674 81.341766,13.357087 
	C83.084274,13.685375 84.539413,13.737250 85.994560,13.789125 
	C86.541000,16.920568 88.462425,16.225065 90.460312,15.417509 
	C91.630501,14.944512 92.830704,14.545780 94.450333,14.513218 
	C93.548828,15.953333 92.249451,17.812761 90.873001,17.871693 
	C87.539940,18.014393 84.170944,17.318029 80.816437,16.959841 
z"/>
<path fill="#A0A8B2" opacity="1.000000" stroke="none" 
	d="
M80.953735,17.334015 
	C84.170944,17.318029 87.539940,18.014393 90.873001,17.871693 
	C92.249451,17.812761 93.548828,15.953333 94.831482,14.528975 
	C95.288475,14.107845 95.797226,14.070537 96.696503,14.274458 
	C97.087013,14.515686 97.179855,14.973230 97.179855,14.973230 
	C97.139359,15.141397 97.098862,15.309565 97.057098,15.737196 
	C94.297684,20.932461 85.353386,21.891348 80.953735,17.334015 
z"/>
<path fill="#324462" opacity="1.000000" stroke="none" 
	d="
M85.951416,13.402401 
	C84.539413,13.737250 83.084274,13.685375 81.334023,13.417746 
	C81.112038,12.264895 81.185150,11.327800 81.133995,10.153315 
	C84.450249,8.188665 87.891579,8.483002 92.200600,9.286937 
	C89.491272,10.892444 87.699768,11.954060 85.951416,13.402401 
z"/>
<path fill="#F4F4F5" opacity="1.000000" stroke="none" 
	d="
M97.345200,14.881178 
	C97.179855,14.973230 97.087013,14.515686 97.078789,14.282619 
	C97.070564,14.049552 97.533028,14.041160 97.750824,14.118725 
	C97.871590,14.436922 97.718895,14.634534 97.345200,14.881178 
z"/>
<path fill="#F7FBFF" opacity="1.000000" stroke="none" 
	d="
M146.959167,90.074814 
	C148.180191,90.972191 149.412033,91.774925 150.861908,92.853134 
	C149.645782,93.394173 148.211761,93.890602 146.777420,93.891586 
	C109.504807,93.917053 72.232147,93.891037 34.497177,93.814919 
	C35.888111,93.170746 37.739788,92.081039 39.594833,92.075279 
	C72.793129,91.972153 105.991852,92.017525 139.190338,91.954735 
	C141.052002,91.951210 142.912415,91.288467 145.233734,90.491043 
	C146.147339,89.969406 146.600616,89.889275 147.053894,89.809135 
	C147.053894,89.809135 146.970001,89.980179 146.959167,90.074814 
z"/>
<path fill="#8F99A4" opacity="1.000000" stroke="none" 
	d="
M147.034302,89.534927 
	C146.600616,89.889275 146.147339,89.969406 145.354187,90.113670 
	C115.303345,90.116760 85.592384,90.055519 55.881420,89.994827 
	C47.581562,89.977875 39.281704,89.962524 30.521833,89.881882 
	C30.046598,89.399605 30.031376,88.981895 30.474152,88.320137 
	C69.629471,88.104424 108.326782,88.132751 147.024078,88.161072 
	C147.020966,88.527626 147.017853,88.894165 147.034302,89.534927 
z"/>
<path fill="#F7FBFF" opacity="1.000000" stroke="none" 
	d="
M74.974518,15.991983 
	C65.272034,15.994704 55.569180,16.039974 45.867435,15.956213 
	C44.337887,15.943007 42.813374,15.346112 41.178879,14.652155 
	C41.071220,14.285213 41.181366,13.942223 41.130016,13.769644 
	C52.075665,13.555942 63.072666,13.514818 74.509979,13.916498 
	C74.958374,14.903528 74.966446,15.447756 74.974518,15.991983 
z"/>
<path fill="#EBEFF8" opacity="1.000000" stroke="none" 
	d="
M75.348007,15.986862 
	C74.966446,15.447756 74.958374,14.903528 74.941650,14.087660 
	C75.783524,13.613225 76.634048,13.410431 77.839973,13.274843 
	C78.195366,13.342051 78.095451,13.770238 78.095451,13.770237 
	C77.304131,14.507405 76.512817,15.244574 75.348007,15.986862 
z"/>
<path fill="#324462" opacity="1.000000" stroke="none" 
	d="
M78.407272,13.648814 
	C78.095451,13.770238 78.195366,13.342051 78.259254,13.130686 
	C79.031822,12.977152 79.740509,13.034983 80.809540,13.106880 
	C80.971657,13.409189 80.697853,13.543202 80.170731,13.681850 
	C79.568336,13.736275 79.143715,13.631833 78.407272,13.648814 
z"/>
<path fill="#F2F6FC" opacity="1.000000" stroke="none" 
	d="
M147.160828,87.801567 
	C108.326782,88.132751 69.629471,88.104424 30.467731,88.006241 
	C29.645632,86.200813 29.287952,84.465248 28.865002,82.339508 
	C28.799732,81.949333 28.947939,81.476517 29.018078,81.238815 
	C29.613091,81.326454 30.622515,81.712425 30.590525,81.968079 
	C30.068851,86.136871 32.782742,86.027527 35.630997,86.018654 
	C48.615707,85.978256 61.600620,86.001198 74.585457,86.001205 
	C96.726265,86.001213 118.867752,86.075935 141.006790,85.877823 
	C143.072800,85.859329 145.123367,84.114258 147.542511,83.089226 
	C147.701813,84.485756 147.499680,85.963905 147.160828,87.801567 
z"/>
<path fill="#F2F6FC" opacity="1.000000" stroke="none" 
	d="
M33.616467,14.161814 
	C32.586395,15.142041 31.185717,16.071177 29.414757,17.001236 
	C28.993271,16.834087 28.942066,16.666016 28.827339,16.242100 
	C30.257832,15.361074 31.751844,14.735897 33.616467,14.161814 
z"/>
<path fill="#F0F3F9" opacity="1.000000" stroke="none" 
	d="
M130.508820,100.020844 
	C124.947258,100.366295 118.922279,100.663239 112.428513,100.931183 
	C117.988274,100.592216 124.016846,100.282272 130.508820,100.020844 
z"/>
<path fill="#F0F3F9" opacity="1.000000" stroke="none" 
	d="
M134.303772,100.659218 
	C134.125534,100.769829 133.760712,100.657211 133.213440,100.323151 
	C133.393051,100.213142 133.755142,100.324570 134.303772,100.659218 
z"/>
<path fill="#D6F5F2" opacity="1.000000" stroke="none" 
	d="
M334.624359,56.315224 
	C338.247772,57.210552 343.405609,55.750504 342.818054,61.516094 
	C342.291962,66.678757 337.663269,65.561394 334.199219,65.899101 
	C333.378693,65.979088 332.543457,65.895493 331.715790,65.917274 
	C328.208405,66.009583 324.936066,66.668800 325.084442,60.930565 
	C325.226685,55.429211 328.465851,56.332851 331.699585,56.307846 
	C332.527740,56.301441 333.356049,56.308620 334.624359,56.315224 
z"/>
<path fill="#D6F5F2" opacity="1.000000" stroke="none" 
	d="
M330.218262,47.711788 
	C324.727966,48.373619 325.248474,44.923203 325.223419,41.698658 
	C325.194000,37.914433 327.728882,38.578087 330.035309,38.694183 
	C332.181213,38.802197 334.511230,38.391926 336.421417,39.110485 
	C338.138184,39.756287 339.394684,41.625580 340.854187,42.955177 
	C339.437469,44.494938 338.280182,46.573711 336.528229,47.417007 
	C334.901489,48.200031 332.640167,47.664570 330.218262,47.711788 
z"/>
<path fill="#F2F6FC" opacity="1.000000" stroke="none" 
	d="
M147.949646,80.530136 
	C143.368073,76.984100 145.214630,72.589577 147.497894,68.098465 
	C147.895981,72.027420 147.938950,76.048027 147.949646,80.530136 
z"/>
<path fill="#F1F4F6" opacity="1.000000" stroke="none" 
	d="
M82.272629,76.913086 
	C79.802422,77.091072 77.331039,77.410141 74.862473,77.389671 
	C73.556862,77.378853 71.939796,77.154892 71.009109,76.375473 
	C67.374542,73.331657 65.293892,69.612114 64.779236,64.570656 
	C64.394226,60.799145 63.102890,57.221298 65.126266,52.859234 
	C66.665245,51.336311 67.954170,50.137520 69.452293,49.752316 
	C72.894638,48.867210 73.602921,47.382954 72.135201,44.027824 
	C71.492012,42.557522 71.897873,39.683868 72.977081,38.663631 
	C74.112198,37.590546 76.931572,37.231281 78.464806,37.873539 
	C81.484688,39.138531 83.411110,38.983986 83.799942,35.550659 
	C84.203163,31.990194 86.506042,32.043396 89.113251,31.908684 
	C91.962296,31.761477 92.894562,33.167847 93.125847,35.733078 
	C93.381775,38.571644 95.185844,39.933678 97.471840,38.014580 
	C100.283401,35.654266 102.488724,36.746586 104.994064,38.500313 
	C104.964851,40.706158 105.376633,42.752815 104.711174,44.350895 
	C103.479675,47.308285 104.251114,48.699497 107.220207,49.219646 
	C108.814728,49.498981 110.414940,49.745884 112.012581,50.007427 
	C112.012581,50.007427 111.998817,49.999920 112.044319,50.437531 
	C112.053123,53.263317 112.016418,55.651493 111.979713,58.039665 
	C111.979713,58.039665 112.001762,58.003937 111.604248,58.003906 
	C110.560234,58.045910 109.903870,58.030418 109.268845,58.139347 
	C105.229095,58.832302 102.205101,59.911858 105.389816,64.978226 
	C106.084373,66.083145 105.090439,68.249435 104.537918,69.998932 
	C102.466843,70.384514 100.187126,71.552040 99.096413,70.856102 
	C95.402420,68.499107 93.939079,69.476662 92.808449,73.374344 
	C92.459190,74.578354 90.378708,75.983093 89.054405,76.020981 
	C87.448364,76.066933 84.620529,75.042343 84.372482,73.995117 
	C83.014740,68.263100 80.293930,69.511406 76.633644,72.057892 
	C71.304626,70.087029 70.582954,68.396042 72.338570,63.785454 
	C72.752419,62.698608 72.890083,60.599442 72.328346,60.233036 
	C71.075340,59.415741 69.300819,59.398006 67.738785,59.054489 
	C67.009499,59.495808 66.280220,59.937126 65.550934,60.378445 
	C71.801834,60.734112 69.978233,63.123005 68.940529,65.250298 
	C66.638268,69.969894 71.368919,71.134140 73.389046,73.448685 
	C74.047546,74.203156 76.592087,73.311493 78.615295,73.090385 
	C83.969658,70.991364 81.213905,75.571815 82.272629,76.913086 
M86.914452,44.249275 
	C84.448425,45.253811 81.982407,46.258347 79.516380,47.262882 
	C79.662285,47.765835 79.808197,48.268787 79.954102,48.771744 
	C82.923447,48.121330 85.996162,46.671696 88.833893,47.038754 
	C91.846771,47.428467 94.636688,49.541939 97.744347,51.006516 
	C95.986427,46.036442 92.414162,44.231991 86.914452,44.249275 
M84.884186,60.925949 
	C83.490044,59.789707 82.095909,58.653465 80.127838,57.049465 
	C81.651184,62.364548 84.771530,64.429268 89.479500,63.977531 
	C93.698708,63.572693 96.119408,61.329281 96.308075,57.649082 
	C90.352654,62.394650 90.352654,62.394650 84.884186,60.925949 
z"/>
<path fill="#A9B0B9" opacity="1.000000" stroke="none" 
	d="
M104.949074,38.138756 
	C102.488724,36.746586 100.283401,35.654266 97.471840,38.014580 
	C95.185844,39.933678 93.381775,38.571644 93.125847,35.733078 
	C92.894562,33.167847 91.962296,31.761477 89.113251,31.908684 
	C86.506042,32.043396 84.203163,31.990194 83.799942,35.550659 
	C83.411110,38.983986 81.484688,39.138531 78.464806,37.873539 
	C76.931572,37.231281 74.112198,37.590546 72.977081,38.663631 
	C71.897873,39.683868 71.492012,42.557522 72.135201,44.027824 
	C73.602921,47.382954 72.894638,48.867210 69.452293,49.752316 
	C67.954170,50.137520 66.665245,51.336311 65.113098,52.457382 
	C64.329376,49.233719 64.329376,49.233719 70.133698,46.963123 
	C69.089127,43.601166 67.172729,40.468582 71.110458,36.990971 
	C74.619759,33.891731 77.368164,33.242527 81.417351,36.969402 
	C81.514999,30.572405 84.661102,29.799023 89.270988,29.757353 
	C93.807251,29.716343 94.976143,32.085556 95.446991,35.818241 
	C98.760178,35.458138 102.031937,31.518436 104.968201,36.730759 
	C105.003616,37.663662 104.976349,37.901211 104.949074,38.138756 
z"/>
<path fill="#A9B0B9" opacity="1.000000" stroke="none" 
	d="
M82.552307,77.145012 
	C81.213905,75.571815 83.969658,70.991364 78.355919,72.957092 
	C77.507988,72.617516 77.260696,72.328934 77.013412,72.040344 
	C80.293930,69.511406 83.014740,68.263100 84.372482,73.995117 
	C84.620529,75.042343 87.448364,76.066933 89.054405,76.020981 
	C90.378708,75.983093 92.459190,74.578354 92.808449,73.374344 
	C93.939079,69.476662 95.402420,68.499107 99.096413,70.856102 
	C100.187126,71.552040 102.466843,70.384514 104.759689,70.106522 
	C105.606972,70.319069 105.812943,70.565605 105.935616,70.881699 
	C103.332298,75.810104 99.893387,74.910339 96.331696,72.024605 
	C92.580772,79.539452 89.247566,80.810600 82.552307,77.145012 
z"/>
<path fill="#ACB2BD" opacity="1.000000" stroke="none" 
	d="
M104.994064,38.500313 
	C104.976349,37.901211 105.003616,37.663662 105.081734,37.069454 
	C110.377739,39.154995 109.317024,42.586018 106.373199,46.119328 
	C108.356506,47.298046 110.081963,48.323521 111.909996,49.678207 
	C110.414940,49.745884 108.814728,49.498981 107.220207,49.219646 
	C104.251114,48.699497 103.479675,47.308285 104.711174,44.350895 
	C105.376633,42.752815 104.964851,40.706158 104.994064,38.500313 
z"/>
<path fill="#ACB2BD" opacity="1.000000" stroke="none" 
	d="
M106.253357,70.745285 
	C105.812943,70.565605 105.606972,70.319069 105.095917,70.034500 
	C105.090439,68.249435 106.084373,66.083145 105.389816,64.978226 
	C102.205101,59.911858 105.229095,58.832302 109.268845,58.139347 
	C109.903870,58.030418 110.560234,58.045910 111.619530,57.989525 
	C110.398109,59.287983 108.763885,60.600792 106.667236,62.285076 
	C107.213684,64.474632 111.290016,67.600822 106.253357,70.745285 
z"/>
<path fill="#ACB2BD" opacity="1.000000" stroke="none" 
	d="
M112.252960,57.763275 
	C112.016418,55.651493 112.053123,53.263317 112.041733,50.430088 
	C112.171165,52.485649 112.348694,54.986267 112.252960,57.763275 
z"/>
<path fill="#ACB2BD" opacity="1.000000" stroke="none" 
	d="
M76.633644,72.057892 
	C77.260696,72.328934 77.507988,72.617516 78.014648,73.039398 
	C76.592087,73.311493 74.047546,74.203156 73.389046,73.448685 
	C71.368919,71.134140 66.638268,69.969894 68.940529,65.250298 
	C69.978233,63.123005 71.801834,60.734112 65.550934,60.378445 
	C66.280220,59.937126 67.009499,59.495808 67.738785,59.054489 
	C69.300819,59.398006 71.075340,59.415741 72.328346,60.233036 
	C72.890083,60.599442 72.752419,62.698608 72.338570,63.785454 
	C70.582954,68.396042 71.304626,70.087029 76.633644,72.057892 
z"/>
<path fill="#ACB2BD" opacity="1.000000" stroke="none" 
	d="
M87.303421,44.191170 
	C92.414162,44.231991 95.986427,46.036442 97.744347,51.006516 
	C94.636688,49.541939 91.846771,47.428467 88.833893,47.038754 
	C85.996162,46.671696 82.923447,48.121330 79.954102,48.771744 
	C79.808197,48.268787 79.662285,47.765835 79.516380,47.262882 
	C81.982407,46.258347 84.448425,45.253811 87.303421,44.191170 
z"/>
<path fill="#ACB2BD" opacity="1.000000" stroke="none" 
	d="
M85.225616,61.092300 
	C90.352654,62.394650 90.352654,62.394650 96.308075,57.649082 
	C96.119408,61.329281 93.698708,63.572693 89.479500,63.977531 
	C84.771530,64.429268 81.651184,62.364548 80.127838,57.049465 
	C82.095909,58.653465 83.490044,59.789707 85.225616,61.092300 
z"/>
</svg>